<svg width="28" height="28" viewBox="0 0 28 28" fill="none" xmlns="http://www.w3.org/2000/svg">
<path fill-rule="evenodd" clip-rule="evenodd" d="M21.2801 4.80546C20.2061 3.73151 18.4649 3.73152 17.391 4.80546L16.109 6.08745L15.5787 6.61778L16.109 7.14811L20.6557 11.6948L21.186 12.2251L21.7164 11.6948L22.9984 10.4128C24.0723 9.33887 24.0723 7.59767 22.9984 6.52372L21.2801 4.80546ZM18.4517 5.86612C18.9398 5.37796 19.7313 5.37796 20.2194 5.86612L21.9377 7.58438C22.4258 8.07254 22.4258 8.864 21.9377 9.35215L21.186 10.1038L17.7 6.61778L18.4517 5.86612ZM15.5443 7.35571C15.2318 7.04329 14.7253 7.04329 14.4129 7.35571L4.23431 17.5343C4.08429 17.6843 4 17.8878 4 18.1V22.9214C4 23.3632 4.35817 23.7214 4.8 23.7214H9.62143C9.8336 23.7214 10.0371 23.6371 10.1871 23.4871L20.3657 13.3085C20.6781 12.9961 20.6781 12.4896 20.3657 12.1771L15.5443 7.35571ZM5.6 22.1214V18.4313L14.9786 9.05276L18.6686 12.7428L9.29006 22.1214H5.6Z" fill="#8E8F98"/>
</svg>
