<svg width="188" height="64" viewBox="0 0 188 64" fill="none" xmlns="http://www.w3.org/2000/svg">
<path fill-rule="evenodd" clip-rule="evenodd" d="M48.2831 12.9025C42.5157 10.6259 37.7957 14.1133 34.2365 17.9396C33.8079 18.4002 33.2502 18.7098 32.6457 18.8345C32.4481 18.8103 32.2482 18.7978 32.047 18.7974C31.8406 18.7971 31.6355 18.8095 31.4329 18.8342C30.741 18.6913 30.116 18.3071 29.6749 17.7421C28.4324 16.1501 26.42 14.2386 23.943 13.124C21.5588 12.0511 18.7339 11.6969 15.4889 13.1135C11.7102 14.7632 9.88428 16.8932 8.92649 18.9059C7.92543 21.0096 7.73389 23.272 7.73389 25.4061C7.73389 29.7803 9.46634 33.0856 12.8678 36.662L8.72219 41.011C4.60033 36.7341 1.73389 31.9822 1.73389 25.4061C1.73389 22.9903 1.92815 19.649 3.50866 16.3277C5.13244 12.9155 8.08386 9.79948 13.0882 7.61472C18.0972 5.42794 22.7007 5.98548 26.4051 7.65243C28.6891 8.6802 30.6231 10.1204 32.154 11.5757C36.2109 7.94634 42.5709 4.19717 50.4861 7.3216C55.5192 9.30836 58.5483 12.5271 60.2594 16.0095C61.93 19.4095 62.2657 22.8924 62.2657 25.4061C62.2657 30.862 59.4704 36.2508 55.2211 41.0136L51.0807 36.6399C54.4913 32.702 56.2657 28.785 56.2657 25.4061C56.2657 23.37 55.9831 20.912 54.8744 18.6555C53.8061 16.4815 51.8947 14.3282 48.2831 12.9025ZM16.1382 47.7243L20.2828 43.3763C22.1526 45.0006 24.1396 46.706 26.0693 48.207C27.57 49.3743 28.9428 50.3429 30.1042 51.0066C30.6827 51.3373 31.1571 51.5623 31.5283 51.6991C31.855 51.8195 32.0144 51.8388 32.0399 51.8419L32.04 51.8419C32.0656 51.8388 32.2272 51.8195 32.5592 51.6977C32.9344 51.56 33.4134 51.334 33.9968 51.0026C35.1677 50.3376 36.5525 49.3678 38.0641 48.2005C39.966 46.7318 41.9289 45.0622 43.7741 43.4676L47.9034 47.8296C45.9647 49.5064 43.803 51.3496 41.7312 52.9494C40.1261 54.1889 38.4865 55.3528 36.96 56.2198C35.5544 57.0182 33.7814 57.8425 32.0399 57.8425C30.2951 57.8425 28.5263 57.0157 27.1269 56.2158C25.6077 55.3475 23.9788 54.1824 22.3854 52.9429C20.2912 51.314 18.0969 49.4267 16.1382 47.7243ZM32.0435 20.7974C32.8659 20.7989 33.6516 21.1378 34.217 21.735L41.5645 29.4966V23.7974C41.5645 22.1406 42.9077 20.7974 44.5645 20.7974C46.2214 20.7974 47.5645 22.1406 47.5645 23.7974V35.8348L55.1845 43.8841C56.3235 45.0873 56.2715 46.9861 55.0682 48.1251C53.865 49.2642 51.9662 49.2121 50.8272 48.0089L42.3859 39.0919L32.0308 28.1533L13.0967 48.0164C11.9535 49.2157 10.0546 49.2612 8.85528 48.118C7.656 46.9748 7.61052 45.0758 8.75372 43.8766L29.8668 21.7275C30.4343 21.1323 31.2212 20.796 32.0435 20.7974ZM28.7655 42.1868C28.7655 40.4195 30.1982 38.9868 31.9655 38.9868C33.7328 38.9868 35.1655 40.4195 35.1655 42.1868C35.1655 43.9541 33.7328 45.3868 31.9655 45.3868C30.1982 45.3868 28.7655 43.9541 28.7655 42.1868Z" fill="url(#paint0_linear)"/>
<path d="M79.1855 37.3262C80.1816 37.8887 81.1895 38.3984 82.209 38.8555C83.2402 39.3008 84.3066 39.6816 85.4082 39.998C86.5098 40.3027 87.6641 40.5371 88.8711 40.7012C90.0898 40.8652 91.3848 40.9473 92.7559 40.9473C94.4082 40.9473 95.8145 40.8418 96.9746 40.6309C98.1348 40.4082 99.0781 40.1094 99.8047 39.7344C100.543 39.3477 101.076 38.8906 101.404 38.3633C101.744 37.8359 101.914 37.2617 101.914 36.6406C101.914 35.6445 101.498 34.8594 100.666 34.2852C99.834 33.6992 98.5508 33.4062 96.8164 33.4062C96.0547 33.4062 95.252 33.459 94.4082 33.5645C93.5645 33.6582 92.709 33.7637 91.8418 33.8809C90.9863 33.998 90.1367 34.1094 89.293 34.2148C88.4609 34.3086 87.6758 34.3555 86.9375 34.3555C85.707 34.3555 84.5234 34.1973 83.3867 33.8809C82.2617 33.5645 81.2598 33.0898 80.3809 32.457C79.5137 31.8242 78.8223 31.0332 78.3066 30.084C77.791 29.1348 77.5332 28.0273 77.5332 26.7617C77.5332 26.0117 77.6328 25.2676 77.832 24.5293C78.043 23.791 78.3711 23.0879 78.8164 22.4199C79.2734 21.7402 79.8594 21.1133 80.5742 20.5391C81.2891 19.9531 82.1504 19.4492 83.1582 19.0273C84.1777 18.6055 85.3496 18.2773 86.6738 18.043C88.0098 17.7969 89.5273 17.6738 91.2266 17.6738C92.457 17.6738 93.6934 17.7441 94.9355 17.8848C96.1777 18.0137 97.3848 18.2012 98.5566 18.4473C99.7402 18.6934 100.877 18.9922 101.967 19.3438C103.057 19.6836 104.07 20.0645 105.008 20.4863L102.564 24.9863C101.791 24.6465 100.959 24.3359 100.068 24.0547C99.1777 23.7617 98.2461 23.5098 97.2734 23.2988C96.3008 23.0879 95.293 22.9238 94.25 22.8066C93.2188 22.6777 92.1641 22.6133 91.0859 22.6133C89.5508 22.6133 88.2852 22.7246 87.2891 22.9473C86.3047 23.1699 85.5195 23.457 84.9336 23.8086C84.3477 24.1484 83.9375 24.5352 83.7031 24.9688C83.4805 25.3906 83.3691 25.8125 83.3691 26.2344C83.3691 27.0547 83.7383 27.7285 84.4766 28.2559C85.2148 28.7715 86.3398 29.0293 87.8516 29.0293C88.4609 29.0293 89.1582 28.9883 89.9434 28.9062C90.7402 28.8125 91.5723 28.7129 92.4395 28.6074C93.3184 28.502 94.209 28.4082 95.1113 28.3262C96.0254 28.2324 96.9102 28.1855 97.7656 28.1855C99.3828 28.1855 100.812 28.3672 102.055 28.7305C103.309 29.0938 104.357 29.6152 105.201 30.2949C106.045 30.9629 106.684 31.7773 107.117 32.7383C107.551 33.6875 107.768 34.7539 107.768 35.9375C107.768 37.5195 107.398 38.9316 106.66 40.1738C105.934 41.4043 104.891 42.4473 103.531 43.3027C102.184 44.1465 100.555 44.791 98.6445 45.2363C96.7344 45.6699 94.6074 45.8867 92.2637 45.8867C90.7168 45.8867 89.2051 45.7871 87.7285 45.5879C86.252 45.4004 84.834 45.1309 83.4746 44.7793C82.127 44.416 80.8379 43.9883 79.6074 43.4961C78.3887 42.9922 77.2578 42.4414 76.2148 41.8438L79.1855 37.3262ZM116.381 28.6602H111.371V24.7578H116.381V18.3066H121.584V24.7578H126.594V28.6602H121.584V45.5H116.381V28.6602ZM130.232 38.9609C130.232 37.9648 130.449 37.0566 130.883 36.2363C131.316 35.416 131.967 34.7129 132.834 34.127C133.701 33.5293 134.779 33.0723 136.068 32.7559C137.369 32.4277 138.881 32.2637 140.604 32.2637C141.881 32.2637 143.223 32.3574 144.629 32.5449C146.047 32.7324 147.506 33.0195 149.006 33.4062C148.947 32.75 148.748 32.1465 148.408 31.5957C148.068 31.0332 147.594 30.5527 146.984 30.1543C146.387 29.7441 145.66 29.4277 144.805 29.2051C143.961 28.9824 143 28.8711 141.922 28.8711C141.336 28.8711 140.691 28.9062 139.988 28.9766C139.285 29.0469 138.559 29.1523 137.809 29.293C137.059 29.4336 136.314 29.6094 135.576 29.8203C134.85 30.0312 134.17 30.2832 133.537 30.5762L131.955 26.3047C132.74 26.0234 133.578 25.7656 134.469 25.5312C135.371 25.2969 136.291 25.0977 137.229 24.9336C138.166 24.7578 139.104 24.623 140.041 24.5293C140.979 24.4355 141.887 24.3887 142.766 24.3887C146.645 24.3887 149.527 25.3789 151.414 27.3594C153.301 29.3398 154.244 32.375 154.244 36.4648V45.5H149.041V43.5488C148.502 43.8652 147.91 44.1641 147.266 44.4453C146.633 44.7266 145.941 44.9727 145.191 45.1836C144.441 45.3945 143.633 45.5586 142.766 45.6758C141.91 45.8047 141.002 45.8691 140.041 45.8691C138.424 45.8691 137 45.6934 135.77 45.3418C134.551 44.9902 133.531 44.5039 132.711 43.8828C131.891 43.2617 131.27 42.5352 130.848 41.7031C130.438 40.8594 130.232 39.9453 130.232 38.9609ZM135.717 38.7852C135.717 39.125 135.805 39.4531 135.98 39.7695C136.156 40.0742 136.438 40.3496 136.824 40.5957C137.211 40.8301 137.703 41.0234 138.301 41.1758C138.91 41.3164 139.643 41.3867 140.498 41.3867C141.412 41.3867 142.297 41.3047 143.152 41.1406C144.008 40.9766 144.805 40.7598 145.543 40.4902C146.281 40.2207 146.949 39.9102 147.547 39.5586C148.145 39.207 148.643 38.8438 149.041 38.4688V37.5547C148.244 37.332 147.453 37.1445 146.668 36.9922C145.895 36.8398 145.15 36.7227 144.436 36.6406C143.732 36.5469 143.064 36.4824 142.432 36.4473C141.811 36.4121 141.266 36.3945 140.797 36.3945C139.824 36.3945 139.016 36.459 138.371 36.5879C137.727 36.7168 137.205 36.8926 136.807 37.1152C136.408 37.3262 136.127 37.5781 135.963 37.8711C135.799 38.1641 135.717 38.4688 135.717 38.7852ZM163.613 48.1016C164.152 48.4531 164.738 48.7637 165.371 49.0332C166.004 49.3027 166.66 49.5254 167.34 49.7012C168.031 49.877 168.734 50.0059 169.449 50.0879C170.164 50.1816 170.873 50.2285 171.576 50.2285C173.967 50.2285 175.807 49.7129 177.096 48.6816C178.396 47.6621 179.047 46.127 179.047 44.0762V43.373C178.59 43.6895 178.074 43.9824 177.5 44.252C176.938 44.5098 176.328 44.7324 175.672 44.9199C175.027 45.1074 174.342 45.2539 173.615 45.3594C172.9 45.4531 172.174 45.5 171.436 45.5C169.854 45.5 168.436 45.2715 167.182 44.8145C165.939 44.3457 164.885 43.666 164.018 42.7754C163.162 41.873 162.506 40.7656 162.049 39.4531C161.592 38.1406 161.363 36.6406 161.363 34.9531V24.7578H166.549V33.5117C166.549 36.0195 167.023 37.8711 167.973 39.0664C168.934 40.25 170.445 40.8418 172.508 40.8418C173.961 40.8418 175.244 40.5898 176.357 40.0859C177.482 39.5703 178.379 38.9141 179.047 38.1172V24.7578H184.25V43.127C184.25 45.1074 183.969 46.8242 183.406 48.2773C182.844 49.7422 182.023 50.9551 180.945 51.916C179.879 52.877 178.566 53.5918 177.008 54.0605C175.449 54.541 173.68 54.7812 171.699 54.7812C169.766 54.7812 167.961 54.5762 166.285 54.166C164.609 53.7559 163.074 53.1992 161.68 52.4961L163.613 48.1016Z" fill="#FB9300"/>
<defs>
<linearGradient id="paint0_linear" x1="31.9998" y1="6.15552" x2="31.9998" y2="57.8425" gradientUnits="userSpaceOnUse">
<stop stop-color="#FF9012"/>
<stop offset="1" stop-color="#FFC412"/>
</linearGradient>
</defs>
</svg>
